<?xml version="1.0" encoding="utf-8"?>
<!DOCTYPE svg PUBLIC "-//W3C//DTD SVG 1.1//EN" "http://www.w3.org/Graphics/SVG/1.1/DTD/svg11.dtd">
<svg version="1.1" id="icon-phone" xmlns="http://www.w3.org/2000/svg" xmlns:xlink="http://www.w3.org/1999/xlink" x="0px" y="0px"
	 viewBox="0 0 65 65" enable-background="new 0 0 65 65" xml:space="preserve">
<g id="iphone">
	<path fill="#333333" d="M40.5,17h-16c-1.7,0-3,1.3-3,3v26c0,1.7,1.3,3,3,3h16c1.7,0,3-1.3,3-3V20C43.5,18.3,42.2,17,40.5,17z
		 M41.5,46c0,0.6-0.4,1-1,1h-16c-0.6,0-1-0.4-1-1v-2h18V46z M41.5,43h-18V23h18V43z M41.5,22h-18v-2c0-0.6,0.4-1,1-1h16
		c0.6,0,1,0.4,1,1V22z"/>
	<path fill="#333333" d="M34.5,20.5c0,0.3-0.2,0.5-0.5,0.5h-3c-0.3,0-0.5-0.2-0.5-0.5l0,0c0-0.3,0.2-0.5,0.5-0.5h3
		C34.3,20,34.5,20.2,34.5,20.5L34.5,20.5z"/>
	<path fill="#333333" d="M33.5,45.5c0,0.3-0.2,0.5-0.5,0.5h-1c-0.3,0-0.5-0.2-0.5-0.5l0,0c0-0.3,0.2-0.5,0.5-0.5h1
		C33.3,45,33.5,45.2,33.5,45.5L33.5,45.5z"/>
</g>
</svg>
