<?xml version="1.0" encoding="utf-8"?>
<!DOCTYPE svg PUBLIC "-//W3C//DTD SVG 1.1//EN" "http://www.w3.org/Graphics/SVG/1.1/DTD/svg11.dtd">
<svg version="1.1" id="icon-thumb" xmlns="http://www.w3.org/2000/svg" xmlns:xlink="http://www.w3.org/1999/xlink" x="0px" y="0px"
	 viewBox="0 0 65 65" enable-background="new 0 0 65 65" xml:space="preserve">
<path id="circle" fill-rule="evenodd" clip-rule="evenodd" fill="none" stroke="#000000" stroke-width="2" stroke-miterlimit="10" d="M32.5,2
	C48.8,2,62,15.2,62,31.5C62,47.8,48.8,61,32.5,61C16.2,61,3,47.8,3,31.5C3,15.2,16.2,2,32.5,2z"/>
<path id="icon" fill-rule="evenodd" clip-rule="evenodd" d="M41.6,27.6c-0.9-0.2-2.9-0.2-5.9-0.3c0.1-0.7,0.2-1.2,0.2-2.3
	c0-2.5-1.8-4.7-3.4-4.7c-1.1,0-2.1,0.9-2.1,2.1c0,1.4-0.4,3.8-2.8,5c-0.2,0.1-0.7,0.3-0.7,0.4l0,0c-0.4-0.3-0.9-0.6-1.4-0.6h-2.1
	c-1.1,0-2.1,0.9-2.1,2.1v11.1c0,1.1,0.9,2.1,2.1,2.1h2.1c0.8,0,1.5-0.5,1.9-1.2c0,0,0,0,0,0c0,0,0.1,0,0.2,0c0,0,0,0,0,0
	c0.4,0.1,1.2,0.3,2.8,0.7c0.4,0.1,2.2,0.5,4.1,0.5h3.8c1.2,0,2-0.4,2.5-1.3c0,0,0.2-0.3,0.3-0.7c0.1-0.3,0.1-0.8,0-1.2
	c0.7-0.5,1-1.3,1.1-1.8c0.3-0.8,0.2-1.4,0-1.9c0.4-0.4,0.8-1,0.9-1.9c0.1-0.6,0-1.2-0.3-1.6c0.4-0.4,0.6-1,0.6-1.5l0-0.1
	c0-0.1,0-0.1,0-0.3C43.6,29.1,43,28,41.6,27.6z M26.3,40.5c0,0.4-0.3,0.7-0.7,0.7h-2.1c-0.4,0-0.7-0.3-0.7-0.7V29.4
	c0-0.4,0.3-0.7,0.7-0.7h2.1c0.4,0,0.7,0.3,0.7,0.7V40.5z M42.2,30.5c0,0.3-0.2,1-1.4,1c-1,0-1.4,0-1.4,0c-0.2,0-0.3,0.2-0.3,0.3
	c0,0.2,0.2,0.3,0.3,0.3c0,0,0.3,0,1.3,0c1,0,1.2,0.9,1.1,1.3c-0.1,0.5-0.3,1.5-1.5,1.5c-1.2,0-1.6,0-1.6,0c-0.2,0-0.3,0.2-0.3,0.3
	c0,0.2,0.2,0.3,0.3,0.3c0,0,0.8,0,1.4,0c1.2,0,1.1,0.9,0.9,1.4c-0.2,0.7-0.4,1.4-1.8,1.4c-0.5,0-1.1,0-1.1,0
	c-0.2,0-0.3,0.2-0.3,0.3c0,0.2,0.2,0.3,0.3,0.3c0,0,0.5,0,1.1,0c0.8,0,0.8,0.7,0.7,1c-0.1,0.3-0.2,0.5-0.2,0.5
	c-0.2,0.4-0.5,0.6-1.3,0.6h-3.8c-1.9,0-3.8-0.4-3.8-0.4c-2.9-0.7-3-0.7-3.2-0.8c0,0-0.6-0.1-0.6-0.6l0-9.6c0-0.3,0.2-0.6,0.6-0.7
	c0,0,0.1,0,0.1-0.1c3.2-1.3,4.1-4.2,4.2-6.6c0-0.3,0.3-0.7,0.7-0.7c0.7,0,2,1.5,2,3.3c0,1.6-0.1,1.9-0.6,3.6
	c6.9,0,6.9,0.1,7.5,0.3c0.8,0.2,0.8,0.8,0.8,1.1C42.2,30.3,42.2,30.2,42.2,30.5z M24.5,38.4c-0.6,0-1,0.5-1,1s0.5,1,1,1s1-0.5,1-1
	S25.1,38.4,24.5,38.4z M24.5,39.8c-0.2,0-0.3-0.2-0.3-0.3s0.2-0.3,0.3-0.3s0.3,0.2,0.3,0.3S24.7,39.8,24.5,39.8z"/>
</svg>
