<?xml version="1.0" encoding="utf-8"?>
<!DOCTYPE svg PUBLIC "-//W3C//DTD SVG 1.1//EN" "http://www.w3.org/Graphics/SVG/1.1/DTD/svg11.dtd">
<svg version="1.1" id="icon-pin" xmlns="http://www.w3.org/2000/svg" xmlns:xlink="http://www.w3.org/1999/xlink" x="0px" y="0px"
	 viewBox="0 0 65 65" enable-background="new 0 0 65 65" xml:space="preserve">
<g id="pin">
  <path fill="#333333" d="M32.5,34.7c3.3,0,6-2.7,6-6s-2.7-6-6-6s-6,2.7-6,6S29.2,34.7,32.5,34.7z M32.5,23.7c2.8,0,5,2.2,5,5
  	c0,2.8-2.2,5-5,5s-5-2.2-5-5C27.5,26,29.7,23.7,32.5,23.7z"/>
  <path fill="#333333" d="M32.5,17c-6.6,0-12,5.3-12,12c0,7,6,14.2,10.4,19.2c0,0,0.7,0.8,1.6,0.8c0,0,0.1,0,0.1,0
	c0.9,0,1.6-0.8,1.6-0.8c4.4-5,10.4-12.2,10.4-19.2C44.5,22.3,39.1,17,32.5,17z M32.6,46.9c0,0-0.1,0.1-0.1,0.1c0,0-0.1-0.1-0.1-0.1
	c-3.7-4.2-9.9-11.3-9.9-17.8c0-5.5,4.5-10,10-10c5.5,0,10,4.5,10,10C42.5,35.5,36.3,42.6,32.6,46.9z"/>
</g>
</svg>
