<?xml version="1.0" encoding="utf-8"?>
<!DOCTYPE svg PUBLIC "-//W3C//DTD SVG 1.1//EN" "http://www.w3.org/Graphics/SVG/1.1/DTD/svg11.dtd">
<svg version="1.1" id="icon-info" xmlns="http://www.w3.org/2000/svg" xmlns:xlink="http://www.w3.org/1999/xlink" x="0px" y="0px"
	 viewBox="0 0 65 65" enable-background="new 0 0 65 65" xml:space="preserve">
<path id="circle" fill-rule="evenodd" clip-rule="evenodd" fill="none" stroke="#000000" stroke-width="2" stroke-miterlimit="10" d="M32.5,2
	C48.8,2,62,15.2,62,31.5C62,47.8,48.8,61,32.5,61C16.2,61,3,47.8,3,31.5C3,15.2,16.2,2,32.5,2z"/>
<path id="icon" d="M32.5,21.5c-3.9,0-7,3.1-7,6.9c0,2.5,2.3,5.2,3.2,7.5c1.3,3.5,1.1,5.6,3.8,5.6c2.7,0,2.5-2.1,3.8-5.6
	c0.9-2.4,3.2-5,3.2-7.5C39.5,24.6,36.4,21.5,32.5,21.5z M32.5,40.2c-0.6,0-0.9-0.1-1.3-0.8l2.7-0.3C33.5,40.1,33.3,40.2,32.5,40.2
	z M34.4,37.7c-0.1,0.3-0.2,0.5-0.2,0.7L31,38.8c-0.1-0.3-0.2-0.7-0.4-1.2c0,0,0,0,0,0l3.9-0.5C34.5,37.3,34.4,37.5,34.4,37.7z
	 M34.8,36.5L30.4,37c-0.1-0.4-0.2-0.8-0.4-1.2H35C34.9,36.1,34.8,36.3,34.8,36.5z M35.5,34.6h-5.9c-0.3-0.7-0.7-1.4-1.1-2
	c-0.8-1.5-1.7-3-1.7-4.2c0-3.1,2.6-5.6,5.7-5.6s5.7,2.5,5.7,5.6c0,1.3-0.9,2.8-1.7,4.2C36.2,33.3,35.8,33.9,35.5,34.6z M32.5,24.6
	c-2.1,0-3.8,1.7-3.8,3.7c0,0.2,0.1,0.3,0.3,0.3s0.3-0.1,0.3-0.3c0-1.7,1.4-3.1,3.2-3.1c0.2,0,0.3-0.1,0.3-0.3
	C32.8,24.7,32.7,24.6,32.5,24.6z"/>
</svg>
