<?xml version="1.0" encoding="utf-8"?>
<!DOCTYPE svg PUBLIC "-//W3C//DTD SVG 1.1//EN" "http://www.w3.org/Graphics/SVG/1.1/DTD/svg11.dtd">
<svg version="1.1" id="icon-eye" xmlns="http://www.w3.org/2000/svg" xmlns:xlink="http://www.w3.org/1999/xlink" x="0px" y="0px"
	 viewBox="0 0 65 65" enable-background="new 0 0 65 65" xml:space="preserve">
<g id="eye">
	<path fill="#333333" d="M48.4,32.3c0,0,0-0.1,0-0.1c0,0,0,0,0,0c0,0,0-0.1,0-0.1c-2.9-5.6-9.2-9.5-15.9-9.5c-6.7,0-13,4-15.9,9.5
		c0,0,0,0.1,0,0.1c0,0,0,0,0,0c0,0,0,0.1,0,0.1c0,0.1,0,0.1,0,0.2c0,0.1,0,0.1,0,0.2c0,0,0,0.1,0,0.1c0,0,0,0,0,0c0,0,0,0.1,0,0.1
		c2.9,5.6,9.2,9.5,15.9,9.5c6.7,0,13-4,15.9-9.5c0,0,0,0,0-0.1c0,0,0,0,0,0c0,0,0-0.1,0-0.1c0-0.1,0-0.1,0-0.2S48.5,32.4,48.4,32.3z
		 M32.5,40.5c-5.6,0-11.1-3.2-13.9-8c2.8-4.8,8.2-8,13.9-8c5.6,0,11.1,3.2,13.9,8C43.6,37.3,38.1,40.5,32.5,40.5z"/>
	<path fill="#333333" d="M32.5,28.5C32.5,28.5,32.5,28.5,32.5,28.5c-2.2,0-4,1.8-4,4c0,0.3,0.2,0.5,0.5,0.5c0.3,0,0.5-0.2,0.5-0.5
		c0-1.7,1.3-3,3-3v0c0.3,0,0.5-0.2,0.5-0.5C33,28.7,32.8,28.5,32.5,28.5z"/>
	<path fill="#333333" d="M32.5,25.5c-3.9,0-7,3.1-7,7s3.1,7,7,7c3.9,0,7-3.1,7-7C39.5,28.6,36.3,25.5,32.5,25.5z M32.5,38.5
		c-3.3,0-6-2.7-6-6c0-3.3,2.7-6,6-6c3.3,0,6,2.7,6,6C38.5,35.8,35.8,38.5,32.5,38.5z"/>
</g>
</svg>
